<mxfile host="app.diagrams.net" agent="Mozilla/5.0 (Macintosh; Intel Mac OS X 10_15_7) AppleWebKit/537.36 (KHTML, like Gecko) Chrome/129.0.0.0 Safari/537.36" version="24.7.17">
  <diagram name="PÃ¡gina-1" id="b-KRjIP8d8N8ahd06Er-">
    <mxGraphModel dx="680" dy="684" grid="1" gridSize="10" guides="1" tooltips="1" connect="1" arrows="1" fold="1" page="1" pageScale="1" pageWidth="827" pageHeight="1169" math="0" shadow="0">
      <root>
        <mxCell id="0" />
        <mxCell id="1" parent="0" />
        <mxCell id="jnYJZ6hA2NI6pBvCydft-11" value="" style="endArrow=blockThin;html=1;rounded=0;endFill=1;strokeWidth=2;exitX=0.668;exitY=0.966;exitDx=0;exitDy=0;exitPerimeter=0;entryX=0.684;entryY=0.04;entryDx=0;entryDy=0;entryPerimeter=0;" edge="1" parent="1">
          <mxGeometry width="50" height="50" relative="1" as="geometry">
            <mxPoint x="211.99999999999994" y="235.00000000000009" as="sourcePoint" />
            <mxPoint x="213.28000000000003" y="360.9200000000001" as="targetPoint" />
          </mxGeometry>
        </mxCell>
        <mxCell id="jnYJZ6hA2NI6pBvCydft-30" value="&lt;font style=&quot;font-size: 16px;&quot;&gt;0&lt;/font&gt;" style="edgeLabel;html=1;align=center;verticalAlign=middle;resizable=0;points=[];" vertex="1" connectable="0" parent="jnYJZ6hA2NI6pBvCydft-11">
          <mxGeometry x="-0.0318" relative="1" as="geometry">
            <mxPoint as="offset" />
          </mxGeometry>
        </mxCell>
        <mxCell id="jnYJZ6hA2NI6pBvCydft-12" value="" style="endArrow=blockThin;html=1;rounded=0;endFill=1;strokeWidth=2;entryX=0.294;entryY=0.969;entryDx=0;entryDy=0;entryPerimeter=0;" edge="1" parent="1" target="jnYJZ6hA2NI6pBvCydft-1">
          <mxGeometry width="50" height="50" relative="1" as="geometry">
            <mxPoint x="183" y="390" as="sourcePoint" />
            <mxPoint x="140" y="270" as="targetPoint" />
          </mxGeometry>
        </mxCell>
        <mxCell id="jnYJZ6hA2NI6pBvCydft-29" value="&lt;font style=&quot;font-size: 16px;&quot;&gt;0&lt;/font&gt;" style="edgeLabel;html=1;align=center;verticalAlign=middle;resizable=0;points=[];" vertex="1" connectable="0" parent="jnYJZ6hA2NI6pBvCydft-12">
          <mxGeometry x="0.0932" relative="1" as="geometry">
            <mxPoint as="offset" />
          </mxGeometry>
        </mxCell>
        <mxCell id="jnYJZ6hA2NI6pBvCydft-15" value="" style="endArrow=blockThin;html=1;rounded=0;endFill=1;strokeWidth=2;exitX=0;exitY=1;exitDx=0;exitDy=0;entryX=1;entryY=1;entryDx=0;entryDy=0;" edge="1" parent="1">
          <mxGeometry width="50" height="50" relative="1" as="geometry">
            <mxPoint x="382" y="413" as="sourcePoint" />
            <mxPoint x="238" y="413" as="targetPoint" />
          </mxGeometry>
        </mxCell>
        <mxCell id="jnYJZ6hA2NI6pBvCydft-35" value="&lt;font style=&quot;font-size: 16px;&quot;&gt;&amp;nbsp;0&amp;nbsp;&lt;/font&gt;" style="edgeLabel;html=1;align=center;verticalAlign=middle;resizable=0;points=[];" vertex="1" connectable="0" parent="jnYJZ6hA2NI6pBvCydft-15">
          <mxGeometry x="0.1728" y="-1" relative="1" as="geometry">
            <mxPoint as="offset" />
          </mxGeometry>
        </mxCell>
        <mxCell id="jnYJZ6hA2NI6pBvCydft-16" value="" style="endArrow=blockThin;html=1;rounded=0;endFill=1;strokeWidth=2;exitX=1;exitY=0;exitDx=0;exitDy=0;entryX=0;entryY=0;entryDx=0;entryDy=0;" edge="1" parent="1">
          <mxGeometry width="50" height="50" relative="1" as="geometry">
            <mxPoint x="218" y="386" as="sourcePoint" />
            <mxPoint x="362" y="386" as="targetPoint" />
          </mxGeometry>
        </mxCell>
        <mxCell id="jnYJZ6hA2NI6pBvCydft-36" value="&lt;font style=&quot;font-size: 16px;&quot;&gt;&amp;nbsp;0&amp;nbsp;&lt;/font&gt;" style="edgeLabel;html=1;align=center;verticalAlign=middle;resizable=0;points=[];" vertex="1" connectable="0" parent="jnYJZ6hA2NI6pBvCydft-16">
          <mxGeometry x="0.1373" relative="1" as="geometry">
            <mxPoint as="offset" />
          </mxGeometry>
        </mxCell>
        <mxCell id="jnYJZ6hA2NI6pBvCydft-3" value="&lt;font style=&quot;font-size: 30px;&quot;&gt;4&lt;/font&gt;" style="ellipse;whiteSpace=wrap;html=1;aspect=fixed;fillColor=#dae8fc;strokeColor=#6c8ebf;" vertex="1" parent="1">
          <mxGeometry x="160" y="360" width="80" height="80" as="geometry" />
        </mxCell>
        <mxCell id="jnYJZ6hA2NI6pBvCydft-22" value="" style="endArrow=blockThin;html=1;rounded=0;endFill=1;strokeWidth=2;exitX=1;exitY=0;exitDx=0;exitDy=0;entryX=0;entryY=0;entryDx=0;entryDy=0;" edge="1" parent="1">
          <mxGeometry width="50" height="50" relative="1" as="geometry">
            <mxPoint x="418" y="386" as="sourcePoint" />
            <mxPoint x="562" y="386" as="targetPoint" />
          </mxGeometry>
        </mxCell>
        <mxCell id="jnYJZ6hA2NI6pBvCydft-33" value="&lt;font style=&quot;font-size: 16px;&quot;&gt;&amp;nbsp;0&amp;nbsp;&lt;/font&gt;" style="edgeLabel;html=1;align=center;verticalAlign=middle;resizable=0;points=[];" vertex="1" connectable="0" parent="jnYJZ6hA2NI6pBvCydft-22">
          <mxGeometry x="0.2083" relative="1" as="geometry">
            <mxPoint as="offset" />
          </mxGeometry>
        </mxCell>
        <mxCell id="jnYJZ6hA2NI6pBvCydft-23" value="" style="endArrow=blockThin;html=1;rounded=0;endFill=1;strokeWidth=2;exitX=0;exitY=1;exitDx=0;exitDy=0;entryX=1;entryY=1;entryDx=0;entryDy=0;" edge="1" parent="1">
          <mxGeometry width="50" height="50" relative="1" as="geometry">
            <mxPoint x="582" y="413" as="sourcePoint" />
            <mxPoint x="438" y="413" as="targetPoint" />
          </mxGeometry>
        </mxCell>
        <mxCell id="jnYJZ6hA2NI6pBvCydft-34" value="&lt;font style=&quot;font-size: 16px;&quot;&gt;&amp;nbsp;0&amp;nbsp;&lt;/font&gt;" style="edgeLabel;html=1;align=center;verticalAlign=middle;resizable=0;points=[];" vertex="1" connectable="0" parent="jnYJZ6hA2NI6pBvCydft-23">
          <mxGeometry x="0.0565" y="-1" relative="1" as="geometry">
            <mxPoint as="offset" />
          </mxGeometry>
        </mxCell>
        <mxCell id="jnYJZ6hA2NI6pBvCydft-2" value="&lt;font style=&quot;font-size: 30px;&quot;&gt;2&lt;/font&gt;" style="ellipse;whiteSpace=wrap;html=1;aspect=fixed;fillColor=#dae8fc;strokeColor=#6c8ebf;" vertex="1" parent="1">
          <mxGeometry x="560" y="360" width="80" height="80" as="geometry" />
        </mxCell>
        <mxCell id="jnYJZ6hA2NI6pBvCydft-24" value="" style="endArrow=blockThin;html=1;rounded=0;endFill=1;strokeWidth=2;entryX=0.294;entryY=0.969;entryDx=0;entryDy=0;entryPerimeter=0;" edge="1" parent="1">
          <mxGeometry width="50" height="50" relative="1" as="geometry">
            <mxPoint x="385" y="390" as="sourcePoint" />
            <mxPoint x="386" y="238" as="targetPoint" />
          </mxGeometry>
        </mxCell>
        <mxCell id="jnYJZ6hA2NI6pBvCydft-31" value="&lt;font style=&quot;font-size: 16px;&quot;&gt;0&lt;/font&gt;" style="edgeLabel;html=1;align=center;verticalAlign=middle;resizable=0;points=[];" vertex="1" connectable="0" parent="jnYJZ6hA2NI6pBvCydft-24">
          <mxGeometry x="0.0845" relative="1" as="geometry">
            <mxPoint as="offset" />
          </mxGeometry>
        </mxCell>
        <mxCell id="jnYJZ6hA2NI6pBvCydft-1" value="&lt;font style=&quot;font-size: 30px;&quot;&gt;0&lt;/font&gt;" style="ellipse;whiteSpace=wrap;html=1;aspect=fixed;fillColor=#dae8fc;strokeColor=#6c8ebf;" vertex="1" parent="1">
          <mxGeometry x="160" y="160" width="80" height="80" as="geometry" />
        </mxCell>
        <mxCell id="jnYJZ6hA2NI6pBvCydft-4" value="&lt;font style=&quot;font-size: 30px;&quot;&gt;3&lt;/font&gt;" style="ellipse;whiteSpace=wrap;html=1;aspect=fixed;fillColor=#dae8fc;strokeColor=#6c8ebf;" vertex="1" parent="1">
          <mxGeometry x="360" y="360" width="80" height="80" as="geometry" />
        </mxCell>
        <mxCell id="jnYJZ6hA2NI6pBvCydft-25" value="" style="endArrow=blockThin;html=1;rounded=0;endFill=1;strokeWidth=2;exitX=0.668;exitY=0.966;exitDx=0;exitDy=0;exitPerimeter=0;entryX=0.684;entryY=0.04;entryDx=0;entryDy=0;entryPerimeter=0;" edge="1" parent="1">
          <mxGeometry width="50" height="50" relative="1" as="geometry">
            <mxPoint x="411.99999999999994" y="236.00000000000009" as="sourcePoint" />
            <mxPoint x="413.28000000000003" y="361.9200000000001" as="targetPoint" />
          </mxGeometry>
        </mxCell>
        <mxCell id="jnYJZ6hA2NI6pBvCydft-32" value="&lt;font style=&quot;font-size: 16px;&quot;&gt;0&lt;/font&gt;" style="edgeLabel;html=1;align=center;verticalAlign=middle;resizable=0;points=[];" vertex="1" connectable="0" parent="jnYJZ6hA2NI6pBvCydft-25">
          <mxGeometry x="0.0926" relative="1" as="geometry">
            <mxPoint as="offset" />
          </mxGeometry>
        </mxCell>
        <mxCell id="jnYJZ6hA2NI6pBvCydft-6" value="&lt;font style=&quot;font-size: 30px;&quot;&gt;1&lt;/font&gt;" style="ellipse;whiteSpace=wrap;html=1;aspect=fixed;fillColor=#dae8fc;strokeColor=#6c8ebf;" vertex="1" parent="1">
          <mxGeometry x="360" y="160" width="80" height="80" as="geometry" />
        </mxCell>
        <mxCell id="jnYJZ6hA2NI6pBvCydft-26" value="&lt;font style=&quot;font-size: 30px;&quot;&gt;5&lt;/font&gt;" style="ellipse;whiteSpace=wrap;html=1;aspect=fixed;fillColor=#dae8fc;strokeColor=#6c8ebf;" vertex="1" parent="1">
          <mxGeometry x="260" y="260" width="80" height="80" as="geometry" />
        </mxCell>
        <mxCell id="jnYJZ6hA2NI6pBvCydft-27" value="" style="endArrow=blockThin;html=1;rounded=0;endFill=1;strokeWidth=2;entryX=1;entryY=0;entryDx=0;entryDy=0;" edge="1" parent="1" source="jnYJZ6hA2NI6pBvCydft-6" target="jnYJZ6hA2NI6pBvCydft-26">
          <mxGeometry width="50" height="50" relative="1" as="geometry">
            <mxPoint x="279.99999999999994" y="180.00000000000009" as="sourcePoint" />
            <mxPoint x="281.28000000000003" y="305.9200000000001" as="targetPoint" />
          </mxGeometry>
        </mxCell>
        <mxCell id="jnYJZ6hA2NI6pBvCydft-37" value="&lt;font style=&quot;font-size: 16px;&quot;&gt;100&lt;/font&gt;" style="edgeLabel;html=1;align=center;verticalAlign=middle;resizable=0;points=[];" vertex="1" connectable="0" parent="jnYJZ6hA2NI6pBvCydft-27">
          <mxGeometry x="-0.1119" y="-1" relative="1" as="geometry">
            <mxPoint as="offset" />
          </mxGeometry>
        </mxCell>
        <mxCell id="jnYJZ6hA2NI6pBvCydft-28" value="" style="endArrow=blockThin;html=1;rounded=0;endFill=1;strokeWidth=2;exitX=1;exitY=0;exitDx=0;exitDy=0;" edge="1" parent="1" source="jnYJZ6hA2NI6pBvCydft-3" target="jnYJZ6hA2NI6pBvCydft-26">
          <mxGeometry width="50" height="50" relative="1" as="geometry">
            <mxPoint x="306" y="200" as="sourcePoint" />
            <mxPoint x="260" y="240" as="targetPoint" />
          </mxGeometry>
        </mxCell>
        <mxCell id="jnYJZ6hA2NI6pBvCydft-38" value="&lt;font style=&quot;font-size: 16px;&quot;&gt;100&lt;/font&gt;" style="edgeLabel;html=1;align=center;verticalAlign=middle;resizable=0;points=[];" vertex="1" connectable="0" parent="jnYJZ6hA2NI6pBvCydft-28">
          <mxGeometry x="-0.1023" y="-1" relative="1" as="geometry">
            <mxPoint as="offset" />
          </mxGeometry>
        </mxCell>
      </root>
    </mxGraphModel>
  </diagram>
</mxfile>
